<?xml version="1.0" encoding="utf-8"?>
<!-- Generator: Adobe Illustrator 24.0.1, SVG Export Plug-In . SVG Version: 6.00 Build 0)  -->
<svg version="1.1" id="Layer_1" xmlns="http://www.w3.org/2000/svg" xmlns:xlink="http://www.w3.org/1999/xlink" x="0px" y="0px"
	 viewBox="0 0 512 512" style="enable-background:new 0 0 512 512;" xml:space="preserve">
<style type="text/css">
	.st0{fill:none;}
	.st1{fill:#2276FF;}
</style>
<path class="st0" d="M136,136h240v240H136V136z"/>
<path class="st1" d="M256,226c-16.6,0-30,13.4-30,30s13.4,30,30,30s30-13.4,30-30S272.6,226,256,226z M256,206c27.6,0,50,22.4,50,50
	s-22.4,50-50,50s-50-22.4-50-50S228.4,206,256,206z M321,203.5c0,6.9-5.6,12.5-12.5,12.5s-12.5-5.6-12.5-12.5s5.6-12.5,12.5-12.5
	S321,196.6,321,203.5z M256,176c-24.7,0-28.8,0.1-40.3,0.6c-7.8,0.4-13.1,1.4-18,3.3c-4.3,1.7-7.5,3.7-10.8,7c-3.1,3-5.5,6.7-7,10.8
	c-1.9,4.9-2.9,10.1-3.3,18c-0.5,11-0.6,14.9-0.6,40.3c0,24.7,0.1,28.8,0.6,40.3c0.4,7.8,1.4,13.1,3.3,18c1.7,4.4,3.7,7.5,7,10.8
	c3.4,3.4,6.5,5.4,10.8,7c4.9,1.9,10.2,3,18,3.3c11,0.5,14.9,0.6,40.3,0.6c24.7,0,28.8-0.1,40.3-0.6c7.8-0.4,13.1-1.4,18-3.3
	c4.3-1.7,7.5-3.7,10.8-7c3.4-3.4,5.4-6.5,7-10.8c1.9-4.9,3-10.2,3.3-18c0.5-11,0.6-14.9,0.6-40.3c0-24.7-0.1-28.8-0.6-40.3
	c-0.4-7.8-1.4-13.1-3.3-18c-1.5-4.1-3.9-7.8-7-10.8c-3-3.1-6.7-5.5-10.8-7c-4.9-1.9-10.2-2.9-18-3.3C285.2,176.1,281.4,176,256,176z
	 M256,156c27.2,0,30.6,0.1,41.2,0.6c10.7,0.5,17.9,2.2,24.3,4.7c6.6,2.5,12.2,6,17.7,11.5c5.1,5,9,11,11.5,17.7
	c2.5,6.4,4.1,13.6,4.6,24.3s0.6,14.1,0.6,41.2c0,27.2-0.1,30.6-0.6,41.2c-0.5,10.7-2.2,17.9-4.6,24.3c-2.5,6.7-6.4,12.7-11.5,17.7
	c-5,5.1-11,9-17.7,11.5c-6.4,2.5-13.6,4.1-24.3,4.6c-10.7,0.5-14,0.6-41.2,0.6s-30.6-0.1-41.2-0.6c-10.7-0.5-17.9-2.2-24.3-4.6
	c-6.7-2.5-12.7-6.4-17.7-11.5c-5.1-5-9-11-11.5-17.7c-2.5-6.4-4.2-13.6-4.7-24.3c-0.5-10.7-0.6-14-0.6-41.2s0.1-30.6,0.6-41.2
	s2.2-17.9,4.7-24.3c2.5-6.7,6.4-12.7,11.5-17.7c5-5.1,11-9,17.7-11.5c6.4-2.5,13.6-4.2,24.3-4.7C225.4,156.1,228.8,156,256,156z"/>
</svg>
