<?xml version="1.0" encoding="utf-8"?>
<!-- Generator: Adobe Illustrator 24.0.1, SVG Export Plug-In . SVG Version: 6.00 Build 0)  -->
<svg version="1.1" id="Layer_1" xmlns="http://www.w3.org/2000/svg" xmlns:xlink="http://www.w3.org/1999/xlink" x="0px" y="0px"
	 viewBox="0 0 512 512" style="enable-background:new 0 0 512 512;" xml:space="preserve">
<style type="text/css">
	.st0{fill:none;}
	.st1{fill:#2276FF;}
</style>
<g>
	<path class="st0" d="M136,136h240v240H136V136z"/>
	<path class="st1" d="M319.3,319.4h-26.6v-41.8c0-10-0.2-22.8-13.9-22.8c-13.9,0-16,10.8-16,22.1v42.5h-26.7v-85.9h25.6v11.7h0.3
		c3.6-6.7,12.3-13.9,25.3-13.9c27,0,32,17.8,32,40.9L319.3,319.4L319.3,319.4z M206,221.8c-8.5,0-15.5-6.9-15.5-15.4c0,0,0,0,0-0.1
		c0-8.5,6.9-15.5,15.5-15.5s15.5,6.9,15.5,15.5C221.5,214.8,214.6,221.8,206,221.8L206,221.8z M219.4,319.4h-26.7v-85.9h26.7V319.4
		L219.4,319.4z M332.7,166H179.3c-7.4,0-13.3,5.8-13.3,13v154c0,7.2,5.9,13,13.3,13h153.4c7.3,0,13.3-5.8,13.3-13V179
		C346,171.8,340,166,332.7,166L332.7,166L332.7,166z"/>
</g>
</svg>
