<?xml version="1.0" encoding="utf-8"?>
<!-- Generator: Adobe Illustrator 24.0.1, SVG Export Plug-In . SVG Version: 6.00 Build 0)  -->
<svg version="1.1" id="Layer_1" xmlns="http://www.w3.org/2000/svg" xmlns:xlink="http://www.w3.org/1999/xlink" x="0px" y="0px"
	 viewBox="0 0 512 512" style="enable-background:new 0 0 512 512;" xml:space="preserve">
<style type="text/css">
	.st0{fill:none;}
	.st1{fill:#2276FF;}
</style>
<g>
	<path class="st0" d="M136,136h240v240H136V136z"/>
	<path class="st1" d="M256,156c-55.2,0-100,44.8-100,100c0,43.1,27.5,81.3,68.4,94.9c5,0.9,6.9-2.1,6.9-4.8c0-2.4-0.1-10.2-0.1-18.6
		c-25.1,4.6-31.6-6.1-33.6-11.8c-1.1-2.9-6-11.8-10.2-14.1c-3.5-1.9-8.5-6.5-0.1-6.6c7.9-0.1,13.5,7.2,15.4,10.2
		c9,15.1,23.4,10.9,29.1,8.3c0.9-6.5,3.5-10.9,6.4-13.4c-22.2-2.5-45.5-11.1-45.5-49.4c0-10.9,3.9-19.9,10.2-26.9
		c-1-2.5-4.5-12.8,1-26.5c0,0,8.4-2.6,27.5,10.3c8.1-2.3,16.6-3.4,25-3.4c8.5,0,17,1.1,25,3.4c19.1-13,27.5-10.2,27.5-10.2
		c5.5,13.8,2,24,1,26.5c6.4,7,10.2,15.9,10.2,26.9c0,38.4-23.4,46.9-45.6,49.4c3.6,3.1,6.8,9.1,6.8,18.5c0,13.4-0.1,24.1-0.1,27.5
		c0,2.6,1.9,5.7,6.9,4.7C328.6,337.1,356,299,356,256C356,200.8,311.2,156,256,156z"/>
</g>
</svg>
